<?xml version="1.0" encoding="UTF-8"?>
<svg version="1.1" xmlns="http://www.w3.org/2000/svg" width="225" height="225">
<path d="M0 0 C74.25 0 148.5 0 225 0 C225 74.25 225 148.5 225 225 C150.75 225 76.5 225 0 225 C0 150.75 0 76.5 0 0 Z " fill="#FCFCFC" transform="translate(0,0)"/>
<path d="M0 0 C12.78831663 -0.35478306 25.97521618 1.89157117 38.03515625 6.1640625 C37.66003906 6.59976562 37.28492188 7.03546875 36.8984375 7.484375 C35.82767318 8.73045338 34.76016274 9.97933265 33.6953125 11.23046875 C32.67603837 12.41762333 31.64471425 13.59471261 30.59375 14.75390625 C23.79580334 22.40413279 24.69021797 30.98223564 24.64453125 40.66210938 C24.62132812 41.70818359 24.598125 42.75425781 24.57421875 43.83203125 C24.56600098 44.78360107 24.5577832 45.7351709 24.54931641 46.71557617 C24.03515625 49.1640625 24.03515625 49.1640625 22.16137695 51.00634766 C19.25989228 52.58618923 17.78361243 52.0907735 14.59765625 51.3515625 C0.64748285 48.65972079 -11.54939528 50.02170031 -23.83984375 57.4765625 C-25.57066305 58.67385863 -27.28150575 59.90088133 -28.96484375 61.1640625 C-29.61066406 61.64101562 -30.25648437 62.11796875 -30.921875 62.609375 C-37.48908905 68.27229998 -44.44172963 80.70486579 -45.1418457 89.34960938 C-45.82557012 105.27256695 -45.82557012 105.27256695 -40.96484375 120.1640625 C-40.51753906 121.0303125 -40.07023437 121.8965625 -39.609375 122.7890625 C-33.22861727 134.28469037 -24.15451471 141.21084934 -11.77734375 145.5390625 C1.20747788 149.17054023 13.85549143 147.80475178 25.85546875 141.73828125 C28.33072373 140.30854442 30.68686077 138.79244257 33.03515625 137.1640625 C34.08703125 136.4421875 35.13890625 135.7203125 36.22265625 134.9765625 C46.16364053 125.03557822 51.45250062 112.22063428 51.47265625 98.2890625 C51.45813141 92.54419805 50.84814612 87.62487536 49.03515625 82.1640625 C50.3359375 80.19921875 50.3359375 80.19921875 53.03515625 78.1640625 C56.75300969 77.5678103 60.46319921 77.60393141 64.22265625 77.6015625 C73.12297305 77.56154823 80.93844826 77.47796005 88.1015625 71.68359375 C88.92527344 70.79027344 89.74898437 69.89695312 90.59765625 68.9765625 C91.44457031 68.07550781 92.29148438 67.17445312 93.1640625 66.24609375 C94.09025391 65.21548828 94.09025391 65.21548828 95.03515625 64.1640625 C97.34731668 67.63230314 98.14633218 70.98678891 99.09765625 74.9765625 C99.27103516 75.67587891 99.44441406 76.37519531 99.62304688 77.09570312 C105.91060943 102.84821031 100.08538867 128.57759934 87.03515625 151.1640625 C72.92062523 174.16774497 49.86148784 188.72702526 24.03515625 195.1640625 C8.72164985 198.34673902 -5.86118132 197.70518621 -20.96484375 194.1640625 C-22.05410156 193.90882813 -23.14335938 193.65359375 -24.265625 193.390625 C-37.73375226 189.73427165 -50.7271463 182.63678096 -60.96484375 173.1640625 C-61.46967285 172.70547852 -61.97450195 172.24689453 -62.49462891 171.77441406 C-80.11837236 155.61975157 -89.32686783 136.42874817 -93.96484375 113.1640625 C-94.15949219 112.33132812 -94.35414062 111.49859375 -94.5546875 110.640625 C-98.51085155 86.75292971 -90.46034942 60.52777163 -76.76953125 41.0390625 C-74.59935829 38.30106651 -72.34555325 35.72068649 -69.96484375 33.1640625 C-69.08699219 32.21789063 -68.20914063 31.27171875 -67.3046875 30.296875 C-54.49491095 16.83594615 -38.86760333 7.90302827 -20.96484375 3.1640625 C-19.76859375 2.7721875 -18.57234375 2.3803125 -17.33984375 1.9765625 C-11.60535891 0.59603837 -5.87345102 0.3250131 0 0 Z " fill="#000000" transform="translate(108.96484375,13.8359375)"/>
<path d="M0 0 C3.20947266 1.11767578 3.20947266 1.11767578 5.12866211 2.84130859 C6.43728968 5.59749641 6.55321241 7.49329059 6.50244141 10.53955078 C6.49277344 11.56435547 6.48310547 12.58916016 6.47314453 13.64501953 C6.44800781 14.70849609 6.42287109 15.77197266 6.39697266 16.86767578 C6.37666992 18.48609375 6.37666992 18.48609375 6.35595703 20.13720703 C6.3206385 22.79786998 6.27131465 25.45751874 6.20947266 28.11767578 C6.88002686 28.0914917 7.55058105 28.06530762 8.24145508 28.03833008 C11.29305393 27.9341034 14.34427808 27.86926955 17.39697266 27.80517578 C18.45207031 27.76328125 19.50716797 27.72138672 20.59423828 27.67822266 C28.34491972 27.55597216 28.34491972 27.55597216 32.51025391 30.26220703 C34.20947266 33.11767578 34.20947266 33.11767578 34.18188477 35.83789062 C32.85388694 40.31700756 30.44516012 43.01803338 27.35009766 46.44970703 C26.74318085 47.12610733 26.13626404 47.80250763 25.51095581 48.49940491 C23.52196909 50.67158984 21.49979668 52.80617183 19.45947266 54.93017578 C18.76110291 55.66117493 18.06273315 56.39217407 17.34320068 57.14532471 C5.43367164 69.34074477 5.43367164 69.34074477 -1.43994141 70.99707031 C-4.94137844 70.93259909 -8.21224847 70.56863531 -11.66552734 69.99267578 C-18.3577935 68.94591487 -23.65474333 68.92675543 -29.28466797 72.86029053 C-38.30120341 80.30793056 -46.21577793 88.95749966 -54.07128906 97.59179688 C-54.92851562 98.52949417 -55.78574219 99.46719147 -56.66894531 100.43330383 C-58.29722738 102.23300556 -59.90430303 104.05218155 -61.48681641 105.89225769 C-66.90264766 111.97611291 -66.90264766 111.97611291 -71.70898438 112.74243164 C-74.79052734 112.11767578 -74.79052734 112.11767578 -76.72802734 111.05517578 C-78.54048315 107.75010931 -78.38730616 105.86066129 -77.79052734 102.11767578 C-75.18967879 98.8264881 -72.02935522 96.21322596 -68.85693359 93.48486328 C-66.98846857 91.79437642 -65.12460507 90.09879247 -63.26489258 88.39868164 C-62.29574921 87.51695282 -61.32660583 86.635224 -60.32809448 85.72677612 C-43.38882787 71.87239255 -43.38882787 71.87239255 -34.97021484 53.09033203 C-35.17398392 49.53968606 -35.70871909 46.16939638 -36.30102539 42.66552734 C-36.95596289 36.61527639 -36.51257372 32.70574169 -32.89550781 27.76757812 C-28.96365103 22.94652083 -24.63485094 18.56264095 -20.16552734 14.24267578 C-19.42809296 13.52071014 -18.69065857 12.79874451 -17.93087769 12.05490112 C-15.79885356 9.99848174 -13.63361511 7.98978781 -11.43896484 6.00048828 C-10.77835556 5.38755417 -10.11774628 4.77462006 -9.43711853 4.14311218 C-6.06026736 1.23617942 -4.58032743 0.14219489 0 0 Z " fill="#000000" transform="translate(183.79052734375,6.88232421875)"/>
<path d="M0 0 C-5.06681417 6.10881207 -10.58136565 11.5867595 -16.34179688 17.0390625 C-21.67377547 22.23560984 -24.50966237 26.26117557 -25.5 33.8125 C-25.24732917 39.71580928 -22.40009121 45.3046096 -18.5078125 49.67578125 C-13.83313319 53.78126386 -9.38845214 55.53151223 -3.14550781 55.29541016 C6.55680698 53.9595202 12.56444501 47.01684617 19 40.25 C20.8707716 38.31356514 22.74807017 36.3836049 24.625 34.453125 C25.44226563 33.59879883 26.25953125 32.74447266 27.1015625 31.86425781 C29 30 29 30 30 30 C30.90035614 41.27112502 29.1844611 48.94227305 22.46484375 58.08984375 C16.70867753 64.5531557 9.04230272 68.73811056 0.421875 69.58203125 C-11.52476401 70.22288378 -20.83251287 67.92313344 -29.9375 59.75 C-37.86187256 51.07000267 -39.63719761 40.99740908 -39.40234375 29.66796875 C-38.87793659 20.43205753 -34.00361668 12.81022191 -27.24609375 6.69140625 C-18.57015848 0.15804978 -10.66676042 -0.70073609 0 0 Z " fill="#020202" transform="translate(117,78)"/>
</svg>
