<?xml version="1.0" encoding="UTF-8"?>
<svg version="1.1" xmlns="http://www.w3.org/2000/svg" width="512" height="512">
<path d="M0 0 C2.39155233 2.15393273 4.65234899 4.41959529 6.88232422 6.73876953 C8.6154802 8.47192551 10.4467107 10.03333 12.31982422 11.61376953 C16.23155153 14.99242076 19.62440845 18.70039362 23.03466797 22.57861328 C25.13089578 24.94663724 27.27178964 27.2629719 29.43554688 29.5690918 C35.33717201 35.88809818 40.74056674 42.51224865 45.98291016 49.38476562 C47.0061916 50.72624181 48.03319988 52.06487959 49.06298828 53.40136719 C50.71807127 55.55026658 52.36407463 57.70581184 54.00732422 59.86376953 C54.52029053 60.53053711 55.03325684 61.19730469 55.56176758 61.88427734 C60.53523584 68.47535841 62.61155832 73.95849345 61.44482422 82.30126953 C58.5503681 90.54385778 51.85272886 97.54814602 46.44482422 104.30126953 C45.72166016 105.20876953 44.99849609 106.11626953 44.25341797 107.05126953 C42.01175257 109.82548527 39.73395941 112.56610317 37.44482422 115.30126953 C37.01991699 115.81786133 36.59500977 116.33445312 36.15722656 116.86669922 C28.83355553 125.7478692 20.93454255 134.02192887 12.81982422 142.17626953 C12.3389032 142.66236694 11.85798218 143.14846436 11.36248779 143.64929199 C5.47550658 149.58621179 -0.60067948 155.13759406 -7.13476562 160.36230469 C-9.06905028 161.91183956 -10.95157398 163.48577346 -12.80517578 165.12939453 C-26.1066251 176.8437391 -41.10152671 186.65663232 -56.55517578 195.30126953 C-57.37937012 195.76388184 -58.20356445 196.22649414 -59.05273438 196.703125 C-73.41155609 204.6779414 -87.9936531 211.05682515 -103.55517578 216.30126953 C-104.33586426 216.56520508 -105.11655273 216.82914062 -105.92089844 217.10107422 C-164.19634572 236.40033966 -227.20444721 227.7326006 -281.40283203 200.53955078 C-297.42485834 192.24809506 -312.46700541 182.55770936 -326.55517578 171.30126953 C-327.52197266 170.53427734 -328.48876953 169.76728516 -329.48486328 168.97705078 C-332.20259227 166.7831739 -334.88021089 164.54701369 -337.55517578 162.30126953 C-338.53744141 161.50462891 -339.51970703 160.70798828 -340.53173828 159.88720703 C-348.63052217 153.23053713 -356.08646329 145.95836266 -363.49267578 138.55126953 C-364.23729065 137.80801422 -364.23729065 137.80801422 -364.99694824 137.04974365 C-370.73172846 131.31377709 -376.32056325 125.50089534 -381.55517578 119.30126953 C-382.37369019 118.34293213 -382.37369019 118.34293213 -383.20874023 117.36523438 C-389.9278344 109.45706772 -396.37528814 101.40154425 -402.36767578 92.92626953 C-402.87709717 92.20705322 -403.38651855 91.48783691 -403.91137695 90.74682617 C-407.01612579 86.28411844 -408.70259653 83.05369406 -408.80517578 77.48876953 C-408.83095703 76.65732422 -408.85673828 75.82587891 -408.88330078 74.96923828 C-408.04347318 68.14064007 -403.10722821 62.66545071 -399.11767578 57.30126953 C-398.49803955 56.46474854 -397.87840332 55.62822754 -397.23999023 54.76635742 C-391.66669116 47.31654585 -385.74879949 40.23876897 -379.55517578 33.30126953 C-378.79978516 32.44662109 -378.04439453 31.59197266 -377.26611328 30.71142578 C-375.04818811 28.223317 -372.8059812 25.7596735 -370.55517578 23.30126953 C-370.0534082 22.74906738 -369.55164063 22.19686523 -369.03466797 21.62792969 C-357.50891683 8.95508211 -357.50891683 8.95508211 -351.60986328 4.04736328 C-349.02249872 1.8485953 -346.58617623 -0.49236894 -344.11767578 -2.82373047 C-322.95838387 -22.45048072 -297.67835094 -38.55611012 -271.55517578 -50.69873047 C-270.85263672 -51.02583008 -270.15009766 -51.35292969 -269.42626953 -51.68994141 C-177.62996327 -93.77009074 -79.58497682 -67.8293579 0 0 Z " fill="#FDFEFE" transform="translate(429.55517578125,178.69873046875)"/>
<path d="M0 0 C0.67627441 0.21430664 1.35254883 0.42861328 2.04931641 0.64941406 C32.06902098 10.40741597 56.64425992 30.66839871 71.50390625 58.60546875 C84.63539339 84.45102179 89.24632809 116.64135044 80.74511719 144.76269531 C77.09434355 155.72458576 72.50646764 166.41281851 66 176 C65.57460938 175.42378906 65.14921875 174.84757813 64.7109375 174.25390625 C59.16399969 166.94663886 54.21424602 161.26009808 45 159 C36.04651135 157.97630761 29.25673941 160.24501782 22.1875 165.75 C16.79867382 170.83805449 14.86790377 175.33759055 14.47851562 182.81738281 C14.31246303 191.40072069 15.70653394 197.49137163 21.71484375 203.80078125 C24.86820929 206.69194134 27.85375721 208.74356279 32 210 C25.1672573 217.85038523 12.79881451 221.67895863 3.25 224.875 C2.40002441 225.16084961 1.55004883 225.44669922 0.67431641 225.74121094 C-10.4853537 229.3241769 -21.04512114 230.36335553 -32.75 230.3125 C-33.74545334 230.30976578 -33.74545334 230.30976578 -34.76101685 230.30697632 C-44.5602018 230.26162545 -53.56993421 229.82557392 -63 227 C-64.17175781 226.68289063 -65.34351563 226.36578125 -66.55078125 226.0390625 C-93.93218177 217.8853614 -118.16216057 199.41342186 -133 175 C-133.68578125 173.87464844 -134.3715625 172.74929688 -135.078125 171.58984375 C-145.55709617 153.57663123 -150.36484355 133.90507519 -150.3125 113.1875 C-150.32861328 111.92357422 -150.34472656 110.65964844 -150.36132812 109.35742188 C-150.36708536 98.11355144 -148.34345123 87.62418907 -144.9375 76.9375 C-144.61652344 75.91527344 -144.29554688 74.89304687 -143.96484375 73.83984375 C-143.06261335 71.18429111 -142.07005181 68.59190327 -141 66 C-138.42945675 68.57054325 -137.4477006 71.25291145 -135.9375 74.5625 C-129.61080796 87.56653603 -119.8959256 93.63383303 -106.81640625 98.875 C-94.9794979 102.54062323 -82.12523892 99.89550462 -71.24609375 94.6796875 C-58.88233053 87.77108087 -52.22724459 77.74606422 -47.82421875 64.44921875 C-44.77003382 51.66796144 -47.56047092 37.74852685 -54.2265625 26.5625 C-60.07974767 18.1050342 -66.80920219 13.62713233 -75.9609375 9.41015625 C-79 8 -79 8 -82 6 C-56.33892384 -4.83233953 -26.99255296 -8.76840905 0 0 Z " fill="#86D5F9" transform="translate(289,143)"/>
<path d="M0 0 C2.39155233 2.15393273 4.65234899 4.41959529 6.88232422 6.73876953 C8.6154802 8.47192551 10.4467107 10.03333 12.31982422 11.61376953 C16.23155153 14.99242076 19.62440845 18.70039362 23.03466797 22.57861328 C25.13089578 24.94663724 27.27178964 27.2629719 29.43554688 29.5690918 C35.33717201 35.88809818 40.74056674 42.51224865 45.98291016 49.38476562 C47.0061916 50.72624181 48.03319988 52.06487959 49.06298828 53.40136719 C50.71807127 55.55026658 52.36407463 57.70581184 54.00732422 59.86376953 C54.52029053 60.53053711 55.03325684 61.19730469 55.56176758 61.88427734 C60.53523584 68.47535841 62.61155832 73.95849345 61.44482422 82.30126953 C58.5503681 90.54385778 51.85272886 97.54814602 46.44482422 104.30126953 C45.72166016 105.20876953 44.99849609 106.11626953 44.25341797 107.05126953 C42.01175257 109.82548527 39.73395941 112.56610317 37.44482422 115.30126953 C37.01991699 115.81786133 36.59500977 116.33445312 36.15722656 116.86669922 C28.83355553 125.7478692 20.93454255 134.02192887 12.81982422 142.17626953 C12.3389032 142.66236694 11.85798218 143.14846436 11.36248779 143.64929199 C5.47550658 149.58621179 -0.60067948 155.13759406 -7.13476562 160.36230469 C-9.06905028 161.91183956 -10.95157398 163.48577346 -12.80517578 165.12939453 C-26.1066251 176.8437391 -41.10152671 186.65663232 -56.55517578 195.30126953 C-57.37937012 195.76388184 -58.20356445 196.22649414 -59.05273438 196.703125 C-73.41155609 204.6779414 -87.9936531 211.05682515 -103.55517578 216.30126953 C-104.33586426 216.56520508 -105.11655273 216.82914062 -105.92089844 217.10107422 C-164.19634572 236.40033966 -227.20444721 227.7326006 -281.40283203 200.53955078 C-297.42485834 192.24809506 -312.46700541 182.55770936 -326.55517578 171.30126953 C-327.52197266 170.53427734 -328.48876953 169.76728516 -329.48486328 168.97705078 C-332.20259227 166.7831739 -334.88021089 164.54701369 -337.55517578 162.30126953 C-338.53744141 161.50462891 -339.51970703 160.70798828 -340.53173828 159.88720703 C-348.63052217 153.23053713 -356.08646329 145.95836266 -363.49267578 138.55126953 C-364.23729065 137.80801422 -364.23729065 137.80801422 -364.99694824 137.04974365 C-370.73172846 131.31377709 -376.32056325 125.50089534 -381.55517578 119.30126953 C-382.37369019 118.34293213 -382.37369019 118.34293213 -383.20874023 117.36523438 C-389.9278344 109.45706772 -396.37528814 101.40154425 -402.36767578 92.92626953 C-402.87709717 92.20705322 -403.38651855 91.48783691 -403.91137695 90.74682617 C-407.01612579 86.28411844 -408.70259653 83.05369406 -408.80517578 77.48876953 C-408.83095703 76.65732422 -408.85673828 75.82587891 -408.88330078 74.96923828 C-408.04347318 68.14064007 -403.10722821 62.66545071 -399.11767578 57.30126953 C-398.49803955 56.46474854 -397.87840332 55.62822754 -397.23999023 54.76635742 C-391.66669116 47.31654585 -385.74879949 40.23876897 -379.55517578 33.30126953 C-378.79978516 32.44662109 -378.04439453 31.59197266 -377.26611328 30.71142578 C-375.04818811 28.223317 -372.8059812 25.7596735 -370.55517578 23.30126953 C-370.0534082 22.74906738 -369.55164063 22.19686523 -369.03466797 21.62792969 C-357.50891683 8.95508211 -357.50891683 8.95508211 -351.60986328 4.04736328 C-349.02249872 1.8485953 -346.58617623 -0.49236894 -344.11767578 -2.82373047 C-322.95838387 -22.45048072 -297.67835094 -38.55611012 -271.55517578 -50.69873047 C-270.85263672 -51.02583008 -270.15009766 -51.35292969 -269.42626953 -51.68994141 C-177.62996327 -93.77009074 -79.58497682 -67.8293579 0 0 Z M-232.68017578 -53.44873047 C-233.67114258 -53.15135986 -234.66210938 -52.85398926 -235.68310547 -52.54760742 C-265.25916084 -43.45001279 -293.29619032 -28.93745366 -317.55517578 -9.69873047 C-318.67884851 -8.83892018 -319.80391985 -7.9809355 -320.93017578 -7.12451172 C-328.65880814 -1.20917642 -335.87164671 5.09763888 -342.9375 11.78515625 C-344.56563584 13.31107288 -346.21413497 14.81118695 -347.87158203 16.30517578 C-355.21645638 22.9395698 -362.0235422 29.86745118 -368.55517578 37.30126953 C-369.0330957 37.83977539 -369.51101563 38.37828125 -370.00341797 38.93310547 C-377.53301904 47.43554887 -384.57233207 56.25647709 -391.20703125 65.4765625 C-392.11639454 66.70738127 -393.06510551 67.90994915 -394.04785156 69.08300781 C-396.507701 72.12583225 -397.5176908 73.67844214 -397.75830078 77.67626953 C-396.11843564 82.6171619 -393.46568843 86.20560984 -390.30517578 90.30126953 C-389.67764404 91.13215088 -389.0501123 91.96303223 -388.40356445 92.8190918 C-382.45294999 100.61214968 -376.11763654 108.02157648 -369.55517578 115.30126953 C-368.68892578 116.27837891 -367.82267578 117.25548828 -366.93017578 118.26220703 C-356.12548935 130.2857148 -344.85899687 142.36393846 -332.09033203 152.32080078 C-329.35305215 154.45916889 -326.74629151 156.71843522 -324.11767578 158.98876953 C-277.9223249 197.38567844 -217.86784279 220.55913676 -157.40039062 216.06689453 C-150.74111747 215.41248398 -144.14834375 214.43472581 -137.55517578 213.30126953 C-136.80993652 213.17800293 -136.06469727 213.05473633 -135.296875 212.92773438 C-98.07064007 206.52478768 -62.44495472 189.01121262 -32.55517578 166.30126953 C-31.96510742 165.85396484 -31.37503906 165.40666016 -30.76708984 164.94580078 C-23.94613821 159.74541694 -17.33662213 154.39031452 -11.03173828 148.56689453 C-9.01173756 146.71894434 -6.96246097 144.92952486 -4.88720703 143.14501953 C0.07096266 138.81616489 4.73152985 134.20602614 9.38232422 129.55126953 C10.26823242 128.66528076 11.15414063 127.77929199 12.06689453 126.86645508 C17.24813936 121.63968507 22.15220266 116.39294415 26.66357422 110.57470703 C28.409229 108.34670027 30.2626731 106.30553774 32.19482422 104.23876953 C36.20259859 99.75949229 39.80574761 95.00133811 43.38232422 90.17626953 C43.96272461 89.4117749 44.543125 88.64728027 45.14111328 87.85961914 C48.35209108 83.45668746 50.80537951 79.96069998 50.44482422 74.30126953 C48.99387198 71.38802654 47.07375471 68.99065241 45.00732422 66.48876953 C44.45109375 65.78445801 43.89486328 65.08014648 43.32177734 64.35449219 C41.71233094 62.32310228 40.07971147 60.3121861 38.44482422 58.30126953 C37.73197266 57.38732422 37.01912109 56.47337891 36.28466797 55.53173828 C29.04959387 46.2690001 21.47871019 37.01059288 12.99951172 28.85595703 C11.3093838 27.16582911 9.79381291 25.38182304 8.25732422 23.55126953 C3.87663548 18.47320657 -1.11538451 14.07394337 -6.10449219 9.61230469 C-7.36968802 8.46890152 -8.61111003 7.29930126 -9.84814453 6.12548828 C-27.71750426 -10.66854715 -48.91159757 -24.32298814 -70.55517578 -35.69873047 C-71.25465332 -36.07352539 -71.95413086 -36.44832031 -72.67480469 -36.83447266 C-104.59366134 -53.75333328 -139.0654286 -61.06983871 -174.93017578 -61.26123047 C-176.44141525 -61.27505264 -176.44141525 -61.27505264 -177.98318481 -61.28915405 C-196.72872563 -61.4001626 -214.71981258 -58.93552635 -232.68017578 -53.44873047 Z " fill="#0478BD" transform="translate(429.55517578125,178.69873046875)"/>
<path d="M0 0 C0.67627441 0.21430664 1.35254883 0.42861328 2.04931641 0.64941406 C32.06902098 10.40741597 56.64425992 30.66839871 71.50390625 58.60546875 C84.63539339 84.45102179 89.24632809 116.64135044 80.74511719 144.76269531 C77.09434355 155.72458576 72.50646764 166.41281851 66 176 C65.57460938 175.42378906 65.14921875 174.84757813 64.7109375 174.25390625 C58.89329423 166.43913989 58.89329423 166.43913989 51 161 C50.154375 160.608125 49.30875 160.21625 48.4375 159.8125 C43.30795303 158.60006162 38.24613051 158.84720008 33 159 C34.4126015 155.28938649 36.09360324 151.8266951 37.9375 148.3125 C47.20365167 129.82528741 48.21466202 108.85600866 43 89 C39.80552233 79.38671206 34.95761294 71.14791181 29 63 C28.236875 61.948125 27.47375 60.89625 26.6875 59.8125 C15.18039095 47.77017657 1.82093303 40.49518186 -14 36 C-14.86238281 35.7525 -15.72476563 35.505 -16.61328125 35.25 C-27.27805437 32.66894566 -39.21957558 33.54878902 -50 35 C-50.32871094 34.31035156 -50.65742188 33.62070313 -50.99609375 32.91015625 C-56.95468138 21.1383124 -64.19792184 14.83036935 -75.9609375 9.41015625 C-79 8 -79 8 -82 6 C-56.33892384 -4.83233953 -26.99255296 -8.76840905 0 0 Z " fill="#86D5F9" transform="translate(289,143)"/>
<path d="M0 0 C15.16889852 8.51778053 22.78861302 18.80271722 29.4375 34.61328125 C32.93881319 48.17470557 31.06732978 62.73007075 24.26953125 74.8359375 C15.96218442 88.45930257 3.89548949 97.8302505 -11.73046875 101.8359375 C-24.03623453 103.07194994 -35.72183114 102.85175334 -46.73046875 96.8359375 C-48.17099609 96.07410156 -48.17099609 96.07410156 -49.640625 95.296875 C-61.72190148 88.28408453 -68.36233759 78.3863605 -73.73046875 65.8359375 C-74.1171875 64.93746094 -74.50390625 64.03898437 -74.90234375 63.11328125 C-76.12063385 58.29184072 -76.05916618 53.60161256 -76.04296875 48.6484375 C-76.05908203 47.65134766 -76.07519531 46.65425781 -76.09179688 45.62695312 C-76.09244141 44.67111328 -76.09308594 43.71527344 -76.09375 42.73046875 C-76.09673096 41.86268799 -76.09971191 40.99490723 -76.1027832 40.10083008 C-75.65164598 37.3564366 -74.90623051 36.51357035 -72.73046875 34.8359375 C-70.34765625 33.87890625 -70.34765625 33.87890625 -67.60546875 33.0234375 C-61.96229476 31.05800487 -57.43096739 28.50876058 -52.73046875 24.8359375 C-52.11429688 24.35769531 -51.498125 23.87945312 -50.86328125 23.38671875 C-44.23875126 17.54241118 -39.82660529 8.45301637 -37.71875 -0.0390625 C-37.39261719 -1.0703125 -37.06648438 -2.1015625 -36.73046875 -3.1640625 C-25.23320569 -6.99648352 -10.77449441 -5.06056738 0 0 Z " fill="#445A64" transform="translate(278.73046875,207.1640625)"/>
<path d="M0 0 C2.55761413 2.55761413 3.50838458 5.20123514 5 8.5 C7.46200901 13.79534849 10.02928421 17.28818187 14.5 21.1875 C18.8763707 25.28621577 18.8763707 25.28621577 19.4140625 28.390625 C19.125 30.9375 19.125 30.9375 18.59375 33.72265625 C14.6766937 55.34377623 21.04512712 79.80178079 33.3125 97.75 C48.84344654 119.03410448 69.46238468 132.01140514 95.46191406 136.625 C114.42217254 139.42636178 136.75020377 135.20336042 153 125 C153.66 125 154.32 125 155 125 C155.35191406 125.72445312 155.70382812 126.44890625 156.06640625 127.1953125 C159.81853671 134.54282646 163.35237781 139.82451727 170.9375 143.375 C171.618125 143.58125 172.29875 143.7875 173 144 C166.1672573 151.85038523 153.79881451 155.67895863 144.25 158.875 C143.40002441 159.16084961 142.55004883 159.44669922 141.67431641 159.74121094 C130.5146463 163.3241769 119.95487886 164.36335553 108.25 164.3125 C107.25454666 164.30976578 107.25454666 164.30976578 106.23898315 164.30697632 C96.4397982 164.26162545 87.43006579 163.82557392 78 161 C76.82824219 160.68289063 75.65648437 160.36578125 74.44921875 160.0390625 C47.06781823 151.8853614 22.83783943 133.41342186 8 109 C7.31421875 107.87464844 6.6284375 106.74929688 5.921875 105.58984375 C-4.55709617 87.57663123 -9.36484355 67.90507519 -9.3125 47.1875 C-9.32861328 45.92357422 -9.34472656 44.65964844 -9.36132812 43.35742188 C-9.36708536 32.11355144 -7.34345123 21.62418907 -3.9375 10.9375 C-3.45603516 9.40416016 -3.45603516 9.40416016 -2.96484375 7.83984375 C-2.06261335 5.18429111 -1.07005181 2.59190327 0 0 Z " fill="#85D5F9" transform="translate(148,209)"/>
<path d="M0 0 C0.67627441 0.21430664 1.35254883 0.42861328 2.04931641 0.64941406 C32.06902098 10.40741597 56.64425992 30.66839871 71.50390625 58.60546875 C84.63539339 84.45102179 89.24632809 116.64135044 80.74511719 144.76269531 C77.09434355 155.72458576 72.50646764 166.41281851 66 176 C65.54109375 175.37867188 65.0821875 174.75734375 64.609375 174.1171875 C63.04374636 171.9837251 63.04374636 171.9837251 61.25 170.125 C60 168 60 168 60 165.4375 C60.85578011 162.49575588 61.85216251 160.16867571 63.1875 157.4375 C65.80010043 151.90000579 67.56175143 146.24411332 69.25 140.375 C69.5080542 139.49255615 69.7661084 138.6101123 70.03198242 137.70092773 C76.62966922 114.18418121 73.08020903 87.60964744 62 66 C61.55914062 65.10925781 61.11828125 64.21851563 60.6640625 63.30078125 C48.42822591 39.6065231 27.73250418 21.63819076 2.43945312 13.13964844 C-19.68843312 6.13485361 -40.70925818 4.82254702 -63.28125 11.51171875 C-68.40154951 12.43131277 -72.67649418 10.90579298 -77.375 8.9375 C-78.24898437 8.57527344 -79.12296875 8.21304688 -80.0234375 7.83984375 C-80.67570313 7.56269531 -81.32796875 7.28554687 -82 7 C-62.28004284 -9.06811324 -22.93998584 -7.4519509 0 0 Z " fill="#0679BE" transform="translate(289,143)"/>
<path d="M0 0 C3.73184047 3.73184047 5.90018386 8.42326472 6.10546875 13.72265625 C5.67839451 18.86926272 4.656453 23.83262529 3.4765625 28.8515625 C-2.25123643 54.67360686 5.1903201 82.92355999 19 105 C34.37760002 128.36820339 57.75265122 144.57864963 85.125 150.6875 C110.13898795 155.67944553 136.91503113 153.00594048 159.16015625 139.75 C161.56173079 138.7710142 162.5937531 139.10172988 165 140 C166.43362072 140.65140796 167.85101812 141.3396927 169.25 142.0625 C169.95640625 142.42472656 170.6628125 142.78695312 171.390625 143.16015625 C171.92171875 143.43730469 172.4528125 143.71445312 173 144 C166.1672573 151.85038523 153.79881451 155.67895863 144.25 158.875 C143.40002441 159.16084961 142.55004883 159.44669922 141.67431641 159.74121094 C130.5146463 163.3241769 119.95487886 164.36335553 108.25 164.3125 C107.25454666 164.30976578 107.25454666 164.30976578 106.23898315 164.30697632 C96.4397982 164.26162545 87.43006579 163.82557392 78 161 C76.82824219 160.68289063 75.65648437 160.36578125 74.44921875 160.0390625 C47.06781823 151.8853614 22.83783943 133.41342186 8 109 C7.31421875 107.87464844 6.6284375 106.74929688 5.921875 105.58984375 C-4.55709617 87.57663123 -9.36484355 67.90507519 -9.3125 47.1875 C-9.32861328 45.92357422 -9.34472656 44.65964844 -9.36132812 43.35742188 C-9.36708536 32.11355144 -7.34345123 21.62418907 -3.9375 10.9375 C-3.45603516 9.40416016 -3.45603516 9.40416016 -2.96484375 7.83984375 C-2.06261335 5.18429111 -1.07005181 2.59190327 0 0 Z " fill="#0679BE" transform="translate(148,209)"/>
<path d="M0 0 C15.16889852 8.51778053 22.78861302 18.80271722 29.4375 34.61328125 C32.93881319 48.17470557 31.06732978 62.73007075 24.26953125 74.8359375 C15.96218442 88.45930257 3.89548949 97.8302505 -11.73046875 101.8359375 C-24.03623453 103.07194994 -35.72183114 102.85175334 -46.73046875 96.8359375 C-48.17099609 96.07410156 -48.17099609 96.07410156 -49.640625 95.296875 C-61.72190148 88.28408453 -68.36233759 78.3863605 -73.73046875 65.8359375 C-74.1171875 64.93746094 -74.50390625 64.03898437 -74.90234375 63.11328125 C-76.12063385 58.29184072 -76.05916618 53.60161256 -76.04296875 48.6484375 C-76.05908203 47.65134766 -76.07519531 46.65425781 -76.09179688 45.62695312 C-76.09244141 44.67111328 -76.09308594 43.71527344 -76.09375 42.73046875 C-76.09673096 41.86268799 -76.09971191 40.99490723 -76.1027832 40.10083008 C-75.65136307 37.3547156 -74.91163027 36.5107929 -72.73046875 34.8359375 C-70.25 33.88671875 -70.25 33.88671875 -67.54296875 33.1484375 C-66.64191406 32.89707031 -65.74085938 32.64570313 -64.8125 32.38671875 C-64.12542969 32.20496094 -63.43835938 32.02320313 -62.73046875 31.8359375 C-62.87484375 32.50238281 -63.01921875 33.16882813 -63.16796875 33.85546875 C-66.15796526 48.70163197 -64.83621668 61.63594632 -56.41796875 74.62109375 C-49.80321567 83.30295716 -39.59497116 89.36721773 -28.73046875 90.8359375 C-16.45941326 92.09005481 -4.52229442 88.27910657 5.26953125 80.8359375 C13.64258364 73.3804799 18.54857517 62.35866827 19.48828125 51.25 C19.90193986 38.94365643 15.34426704 27.56286862 7.04296875 18.4609375 C-1.72498807 10.42686253 -14.10489158 6.05964409 -25.94140625 6.49609375 C-30.99451502 7.11180868 -35.85331375 8.4059863 -40.73046875 9.8359375 C-40.14138074 7.68591579 -39.53374455 5.5409683 -38.91796875 3.3984375 C-38.58152344 2.20347656 -38.24507812 1.00851563 -37.8984375 -0.22265625 C-37.51300781 -1.19332031 -37.12757813 -2.16398438 -36.73046875 -3.1640625 C-25.23320569 -6.99648352 -10.77449441 -5.06056738 0 0 Z " fill="#0478BD" transform="translate(278.73046875,207.1640625)"/>
<path d="M0 0 C3.63 1.65 7.26 3.3 11 5 C10.835 6.175625 10.67 7.35125 10.5 8.5625 C8.08812225 31.22705707 12.81522042 52.90689001 27 71 C28.35931641 72.34191406 28.35931641 72.34191406 29.74609375 73.7109375 C32 76 32 76 32 78 C32.57234375 78.25523437 33.1446875 78.51046875 33.734375 78.7734375 C36.24304003 80.13157685 38.10666849 81.7439643 40.25 83.625 C57.22942008 97.37382245 78.55073789 101.71557595 100 100 C112.8363947 98.06243099 124.88211274 92.48543424 136 86 C136 90.29 136 94.58 136 99 C111.75786071 111.93883297 87.01218376 115.77372266 60.49658203 107.83447266 C49.60313235 104.19338024 39.88053197 98.22320097 31 91 C29.74123047 90.00419922 29.74123047 90.00419922 28.45703125 88.98828125 C11.77806369 74.99863559 3.69879857 55.74494675 -1 35 C-1.20496094 34.17886719 -1.40992188 33.35773438 -1.62109375 32.51171875 C-2.20549934 28.63777244 -2.19057434 24.78748588 -2.1875 20.875 C-2.18814453 20.03348389 -2.18878906 19.19196777 -2.18945312 18.32495117 C-2.13604797 12.01161255 -1.42963295 6.16529211 0 0 Z " fill="#B1E4FB" transform="translate(167,235)"/>
<path d="M0 0 C24.57114814 -0.88990074 46.81839386 9.14995653 65.2578125 24.921875 C80.84791165 39.62823307 91.95500839 60.72785653 92.98046875 82.1796875 C93.55905998 102.60292014 90.75121885 119.08607175 81.5703125 137.234375 C77.2803125 137.234375 72.9903125 137.234375 68.5703125 137.234375 C70.07022111 133.48460346 71.64203711 130.10276754 73.5078125 126.546875 C82.77396417 108.05966241 83.78497452 87.09038366 78.5703125 67.234375 C75.37583483 57.62108706 70.52792544 49.38228681 64.5703125 41.234375 C63.425625 39.6565625 63.425625 39.6565625 62.2578125 38.046875 C50.75070345 26.00455157 37.39124553 18.72955686 21.5703125 14.234375 C20.27673828 13.863125 20.27673828 13.863125 18.95703125 13.484375 C8.23795151 10.89017755 -3.59613735 11.88018123 -14.4296875 13.234375 C-16.0796875 9.934375 -17.7296875 6.634375 -19.4296875 3.234375 C-12.97286517 1.17368702 -6.74034729 0.46061599 0 0 Z " fill="#B1E4FB" transform="translate(253.4296875,164.765625)"/>
<path d="M0 0 C2.875 0.9375 2.875 0.9375 4.875 3.9375 C5.12896729 6.06237793 5.12896729 6.06237793 5.13378906 8.54492188 C5.14009338 9.47598755 5.14639771 10.40705322 5.15289307 11.36633301 C5.1488446 12.36950562 5.14479614 13.37267822 5.140625 14.40625 C5.14253845 15.43810425 5.1444519 16.4699585 5.14642334 17.53308105 C5.14778467 19.71525313 5.14409187 21.89743332 5.13574219 24.07958984 C5.12504211 27.42433827 5.13563941 30.76854957 5.1484375 34.11328125 C5.1471159 36.23177202 5.14455349 38.35026246 5.140625 40.46875 C5.14467346 41.47192261 5.14872192 42.47509521 5.15289307 43.50866699 C5.14658875 44.43973267 5.14028442 45.37079834 5.13378906 46.33007812 C5.13140228 47.55893738 5.13140228 47.55893738 5.12896729 48.81262207 C4.875 50.9375 4.875 50.9375 2.875 53.9375 C1 54.3359375 1 54.3359375 -1.125 54.3125 C-1.82625 54.32023437 -2.5275 54.32796875 -3.25 54.3359375 C-5.125 53.9375 -5.125 53.9375 -7.125 50.9375 C-7.39242554 48.8193512 -7.39242554 48.8193512 -7.41552734 46.34594727 C-7.42828705 45.41810928 -7.44104675 44.4902713 -7.45419312 43.53431702 C-7.45641876 42.53428146 -7.45864441 41.53424591 -7.4609375 40.50390625 C-7.4675943 39.47442368 -7.4742511 38.4449411 -7.48110962 37.38426208 C-7.49123787 35.20630685 -7.49592659 33.02832056 -7.49560547 30.8503418 C-7.49997869 27.51624507 -7.53629757 24.18347181 -7.57421875 20.84960938 C-7.58008679 18.73437953 -7.58405627 16.6191434 -7.5859375 14.50390625 C-7.60749405 13.00688927 -7.60749405 13.00688927 -7.62948608 11.47962952 C-7.58404615 4.60455335 -7.58404615 4.60455335 -5.29150391 1.27319336 C-3.125 -0.0625 -3.125 -0.0625 0 0 Z " fill="#0276BD" transform="translate(257.125,417.0625)"/>
<path d="M0 0 C2.875 0.9375 2.875 0.9375 4.875 3.9375 C5.12896729 6.06237793 5.12896729 6.06237793 5.13378906 8.54492188 C5.14009338 9.47598755 5.14639771 10.40705322 5.15289307 11.36633301 C5.1488446 12.36950562 5.14479614 13.37267822 5.140625 14.40625 C5.14253845 15.43810425 5.1444519 16.4699585 5.14642334 17.53308105 C5.14778467 19.71525313 5.14409187 21.89743332 5.13574219 24.07958984 C5.12504211 27.42433827 5.13563941 30.76854957 5.1484375 34.11328125 C5.1471159 36.23177202 5.14455349 38.35026246 5.140625 40.46875 C5.14467346 41.47192261 5.14872192 42.47509521 5.15289307 43.50866699 C5.14658875 44.43973267 5.14028442 45.37079834 5.13378906 46.33007812 C5.13140228 47.55893738 5.13140228 47.55893738 5.12896729 48.81262207 C4.875 50.9375 4.875 50.9375 2.875 53.9375 C1 54.3359375 1 54.3359375 -1.125 54.3125 C-1.82625 54.32023437 -2.5275 54.32796875 -3.25 54.3359375 C-5.125 53.9375 -5.125 53.9375 -7.125 50.9375 C-7.39242554 48.8193512 -7.39242554 48.8193512 -7.41552734 46.34594727 C-7.42828705 45.41810928 -7.44104675 44.4902713 -7.45419312 43.53431702 C-7.45641876 42.53428146 -7.45864441 41.53424591 -7.4609375 40.50390625 C-7.4675943 39.47442368 -7.4742511 38.4449411 -7.48110962 37.38426208 C-7.49123787 35.20630685 -7.49592659 33.02832056 -7.49560547 30.8503418 C-7.49997869 27.51624507 -7.53629757 24.18347181 -7.57421875 20.84960938 C-7.58008679 18.73437953 -7.58405627 16.6191434 -7.5859375 14.50390625 C-7.60749405 13.00688927 -7.60749405 13.00688927 -7.62948608 11.47962952 C-7.58404615 4.60455335 -7.58404615 4.60455335 -5.29150391 1.27319336 C-3.125 -0.0625 -3.125 -0.0625 0 0 Z " fill="#0276BD" transform="translate(257.125,42.0625)"/>
<path d="M0 0 C1.093125 0.226875 2.18625 0.45375 3.3125 0.6875 C4.5625 3.25 4.5625 3.25 5.3125 6.6875 C2.6922758 11.9918563 -0.71551197 16.57356735 -4.3125 21.25 C-8.84287792 27.20601153 -13.2642769 33.22190161 -17.56494141 39.34594727 C-19.17031187 41.6210656 -20.71399447 43.71399447 -22.6875 45.6875 C-26.1875 45.9375 -26.1875 45.9375 -29.6875 45.6875 C-31.6875 43.6875 -31.6875 43.6875 -32.13671875 41.046875 C-31.50945336 36.35602079 -29.30929661 33.65457581 -26.5 29.9375 C-25.70154663 28.84671143 -25.70154663 28.84671143 -24.88696289 27.73388672 C-23.75256059 26.1848864 -22.61266 24.63990026 -21.46777344 23.09863281 C-19.65432944 20.64257509 -17.87387246 18.16556252 -16.1015625 15.6796875 C-14.9428451 14.05719398 -13.78399458 12.43479553 -12.625 10.8125 C-12.07755127 10.04583008 -11.53010254 9.27916016 -10.96606445 8.48925781 C-10.45003662 7.77350586 -9.93400879 7.05775391 -9.40234375 6.3203125 C-8.94980225 5.69012207 -8.49726074 5.05993164 -8.03100586 4.41064453 C-4.30748662 -0.36504124 -4.30748662 -0.36504124 0 0 Z " fill="#0176BC" transform="translate(87.6875,362.3125)"/>
<path d="M0 0 C3.04296875 1.03125 3.04296875 1.03125 4.9921875 3.75 C5.59602433 4.99890632 6.17354534 6.26072954 6.73046875 7.53125 C7.05080078 8.21815918 7.37113281 8.90506836 7.70117188 9.61279297 C8.42323669 11.17647647 9.13319934 12.74578322 9.83349609 14.31933594 C11.19578048 17.37388883 12.59835144 20.40863169 14 23.4453125 C15.01666523 25.6812281 16.03099422 27.91820748 17.04296875 30.15625 C17.78293091 31.77370117 17.78293091 31.77370117 18.5378418 33.42382812 C18.99328369 34.45185547 19.44872559 35.47988281 19.91796875 36.5390625 C20.32789063 37.45316895 20.7378125 38.36727539 21.16015625 39.30908203 C22.15742203 42.38416872 22.28284794 44.81720834 22.04296875 48.03125 C20.85546875 49.90625 20.85546875 49.90625 19.04296875 51.03125 C16.60546875 51.53125 16.60546875 51.53125 14.04296875 51.03125 C10.22544579 47.02645418 8.14135651 42.42022048 5.8984375 37.44140625 C5.52439285 36.61926132 5.15034821 35.79711639 4.76496887 34.95005798 C3.98046802 33.21788609 3.19991418 31.48392177 2.4230957 29.74829102 C1.23261928 27.09853664 0.01835064 24.46056313 -1.19726562 21.82226562 C-1.95851401 20.13348009 -2.71832895 18.44404753 -3.4765625 16.75390625 C-3.84102982 15.96935562 -4.20549713 15.18480499 -4.58100891 14.3764801 C-6.53701758 9.93196819 -7.64541462 6.8440763 -5.95703125 2.03125 C-2.95703125 0.03125 -2.95703125 0.03125 0 0 Z " fill="#0175BD" transform="translate(373.95703125,391.96875)"/>
<path d="M0 0 C6.84923955 6.4346188 11.97662044 15.13875972 17.39013672 22.76123047 C18.85824814 24.80287162 20.35867121 26.8134552 21.87890625 28.81640625 C22.71100858 29.94005153 23.54304474 31.06374582 24.375 32.1875 C25.10460937 33.15042969 25.83421875 34.11335938 26.5859375 35.10546875 C28.40731914 38.83376653 27.97853855 41.03255903 27 45 C26 46 26 46 22.9375 46.6875 C17.56596456 45.74961286 16.29558437 43.38952458 13.1640625 39.109375 C12.44992187 38.08328125 11.73578125 37.0571875 11 36 C10.19719749 34.87885618 9.39244733 33.75910488 8.5859375 32.640625 C6.89014681 30.28400382 5.21092263 27.9166093 3.5390625 25.54296875 C1.87306033 23.19319812 0.16403761 20.8891358 -1.6015625 18.61328125 C-2.01543213 18.07751465 -2.42930176 17.54174805 -2.85571289 16.98974609 C-3.99200611 15.52817371 -5.13826277 14.07436299 -6.28515625 12.62109375 C-8.03512024 9.94631963 -8.72077941 8.16271011 -9 5 C-7.33292121 0.38347411 -4.84595247 -0.88108227 0 0 Z " fill="#0176BD" transform="translate(428,362)"/>
<path d="M0 0 C2 3 2 3 1.84106445 5.66967773 C0.80712495 9.76371801 -0.73234967 13.43995296 -2.45703125 17.28515625 C-2.97338387 18.4532206 -2.97338387 18.4532206 -3.50016785 19.6448822 C-4.22722538 21.28439576 -4.95778933 22.92235835 -5.69165039 24.55883789 C-6.80845974 27.0534752 -7.90977059 29.55455135 -9.00976562 32.05664062 C-9.72043054 33.65405706 -10.43198951 35.2510761 -11.14453125 36.84765625 C-11.47072952 37.59048355 -11.7969278 38.33331085 -12.13301086 39.09864807 C-13.97307644 43.17024831 -15.79503921 46.79975875 -19 50 C-22.6875 49.9375 -22.6875 49.9375 -26 49 C-27.77882432 45.44235137 -26.83577202 41.7392614 -26 38 C-24.35559257 33.60554983 -22.35377494 29.40972896 -20.3125 25.1875 C-19.79494141 24.08857422 -19.27738281 22.98964844 -18.74414062 21.85742188 C-17.18421836 18.5607991 -15.5963439 15.27912185 -14 12 C-13.45134277 10.85740723 -12.90268555 9.71481445 -12.33740234 8.53759766 C-11.80711426 7.44882324 -11.27682617 6.36004883 -10.73046875 5.23828125 C-10.25375732 4.25512939 -9.7770459 3.27197754 -9.28588867 2.2590332 C-6.88566732 -1.95764577 -4.32680281 -1.0817007 0 0 Z " fill="#0176BC" transform="translate(143,393)"/>
<path d="M0 0 C2.375 0.8125 2.375 0.8125 4.375 2.8125 C5.00883159 7.29413749 4.15502065 9.78513588 1.47900391 13.40454102 C1.05280762 13.95166748 0.62661133 14.49879395 0.1875 15.0625 C-0.72569062 16.28483497 -1.63842719 17.50750924 -2.55078125 18.73046875 C-3.04400879 19.38192871 -3.53723633 20.03338867 -4.04541016 20.70458984 C-6.92633282 24.54908541 -9.702309 28.46976537 -12.5 32.375 C-14.52728267 35.19832044 -16.56865853 38.01029165 -18.625 40.8125 C-19.33785156 41.79863281 -20.05070312 42.78476563 -20.78515625 43.80078125 C-22.625 45.8125 -22.625 45.8125 -26.1875 46.4375 C-29.625 45.8125 -29.625 45.8125 -31.75 43.75 C-32.94604152 39.73471775 -31.52881028 37.3323561 -29.625 33.8125 C-27.91627294 31.21182437 -26.0395985 28.76420214 -24.125 26.3125 C-23.05107785 24.9135317 -21.97818658 23.51377154 -20.90625 22.11328125 C-20.36226563 21.40510254 -19.81828125 20.69692383 -19.2578125 19.96728516 C-17.65103317 17.84685537 -16.08438829 15.70292613 -14.53125 13.54296875 C-14.04205078 12.86363281 -13.55285156 12.18429688 -13.04882812 11.484375 C-12.12140665 10.19183698 -11.19801465 8.89639516 -10.27929688 7.59765625 C-4.56347079 -0.3259622 -4.56347079 -0.3259622 0 0 Z " fill="#0176BD" transform="translate(451.625,105.1875)"/>
<path d="M0 0 C6.60273373 2.82974303 10.95086994 11.18219971 15 16.875 C16.13768168 18.46638835 17.27570197 20.05753468 18.4140625 21.6484375 C18.96094727 22.41381836 19.50783203 23.17919922 20.07128906 23.96777344 C21.43383433 25.8595789 22.81373749 27.73529454 24.2109375 29.6015625 C24.92507812 30.55804688 25.63921875 31.51453125 26.375 32.5 C26.98859375 33.31210938 27.6021875 34.12421875 28.234375 34.9609375 C29.61173031 37.10434998 30.31156843 38.60709972 30.625 41.125 C29.625 43.875 29.625 43.875 27.625 46.125 C24.30078125 46.6171875 24.30078125 46.6171875 20.625 46.125 C18.10546875 43.7734375 18.10546875 43.7734375 15.8125 40.5 C15.18637817 39.62734497 15.18637817 39.62734497 14.54760742 38.73706055 C13.66730116 37.50509277 12.79710993 36.26584239 11.93652344 35.02001953 C10.64993289 33.16102551 9.33509716 31.32619792 8.0078125 29.49609375 C6.30925077 27.15123905 4.6290019 24.79517006 2.96484375 22.42578125 C1.49019559 20.3292716 -0.01386732 18.27812936 -1.55859375 16.23046875 C-2.19925781 15.37066406 -2.83992188 14.51085937 -3.5 13.625 C-4.05945312 12.8928125 -4.61890625 12.160625 -5.1953125 11.40625 C-6.7134266 8.47055915 -6.70243715 6.38591519 -6.375 3.125 C-4.30257959 0.74555434 -3.1455314 0.16555428 0 0 Z " fill="#0176BC" transform="translate(62.375,104.875)"/>
<path d="M0 0 C3.5 0.25 3.5 0.25 5.5 2.25 C6.27006203 8.59090789 4.21297278 13.05286243 1.59765625 18.6484375 C1.20049911 19.52400299 0.80334198 20.39956848 0.39414978 21.30166626 C-0.87086603 24.08187338 -2.1541287 26.85322602 -3.4375 29.625 C-4.29737748 31.51119331 -5.15611402 33.39790719 -6.01367188 35.28515625 C-7.58054989 38.71839329 -9.14849067 42.151066 -10.73413086 45.57568359 C-11.05167831 46.26294525 -11.36922577 46.95020691 -11.69639587 47.65829468 C-12.5 49.25 -12.5 49.25 -13.5 50.25 C-19.78388747 50.83184143 -19.78388747 50.83184143 -22.5 48.625 C-24.04749305 44.94970399 -23.12979727 41.94349473 -21.76052856 38.26159668 C-20.79519553 35.96359177 -19.78420045 33.69149608 -18.75390625 31.421875 C-18.38273178 30.59165833 -18.01155731 29.76144165 -17.62913513 28.90606689 C-16.84653542 27.15982419 -16.06050197 25.41511676 -15.27124023 23.671875 C-14.06190815 20.99869173 -12.86515184 18.32013869 -11.66992188 15.640625 C-10.90698714 13.94237698 -10.14333993 12.24444882 -9.37890625 10.546875 C-8.84131432 9.34378693 -8.84131432 9.34378693 -8.29286194 8.11639404 C-7.78740089 7.004487 -7.78740089 7.004487 -7.27172852 5.87011719 C-6.97718277 5.21758972 -6.68263702 4.56506226 -6.37916565 3.89276123 C-4.61958795 0.60490981 -3.78407781 0.27029127 0 0 Z " fill="#0176BC" transform="translate(390.5,70.75)"/>
<path d="M0 0 C3.5625 0.375 3.5625 0.375 5.03222656 1.85180664 C7.22491065 5.46721666 8.9074802 9.25464411 10.609375 13.12109375 C10.98483459 13.96922134 11.36029419 14.81734894 11.74713135 15.69117737 C12.53660946 17.4810843 13.32314787 19.27229037 14.10693359 21.06469727 C15.30925661 23.80510746 16.53117606 26.53622406 17.75390625 29.26757812 C18.51945252 31.00987965 19.28381587 32.75270152 20.046875 34.49609375 C20.41447937 35.3108165 20.78208374 36.12553925 21.16082764 36.96495056 C23.60198904 42.62986175 23.60198904 42.62986175 23.40722656 46.30493164 C22.5625 48.375 22.5625 48.375 20.5625 50.375 C16.9375 50.5 16.9375 50.5 13.5625 50.375 C8.59582 40.82588173 3.98246043 31.12657812 -0.4375 21.3125 C-0.93032471 20.24265869 -1.42314941 19.17281738 -1.9309082 18.07055664 C-6.32249745 8.19859927 -6.32249745 8.19859927 -5.4375 2.375 C-3.4375 0.375 -3.4375 0.375 0 0 Z " fill="#0176BC" transform="translate(121.4375,70.625)"/>
<path d="M0 0 C3.00940438 1.15746322 3.8435539 2.1562115 5.4375 4.9375 C5.38256836 7.47680664 5.38256836 7.47680664 4.77734375 10.34765625 C4.56263428 11.41161621 4.3479248 12.47557617 4.12670898 13.57177734 C3.87864502 14.70309082 3.63058105 15.8344043 3.375 17 C3.13402588 18.15709473 2.89305176 19.31418945 2.64477539 20.50634766 C2.15293599 22.86164868 1.65416671 25.21551336 1.1484375 27.56787109 C0.50477537 30.61863506 -0.08898056 33.67255523 -0.65625 36.73828125 C-0.97902109 38.42971529 -1.30192807 40.1211234 -1.625 41.8125 C-1.76236572 42.58343994 -1.89973145 43.35437988 -2.04125977 44.14868164 C-2.91831977 48.53199626 -3.8656593 51.28496458 -7.5625 53.9375 C-10.6875 53.875 -10.6875 53.875 -13.5625 52.9375 C-17.68632284 46.75176574 -14.24403686 37.9191938 -12.85546875 30.97265625 C-12.3416698 28.49316619 -11.81831252 26.01598001 -11.28881836 23.53979492 C-10.74672698 20.98457217 -10.22783336 18.42526409 -9.70898438 15.86523438 C-9.36339416 14.23407457 -9.01643801 12.60320342 -8.66796875 10.97265625 C-8.51676071 10.21018082 -8.36555267 9.44770538 -8.20976257 8.66212463 C-7.49873523 5.44706139 -6.92846435 3.30989988 -4.59106445 0.93139648 C-2.5625 -0.0625 -2.5625 -0.0625 0 0 Z " fill="#0176BC" transform="translate(325.5625,49.0625)"/>
<path d="M0 0 C3.31159456 0.48294087 4.03126737 0.84449026 6 3.4375 C6.96121573 11.72603423 3.42402062 21.73104481 1.67138672 29.83520508 C1.12156567 32.39096394 0.58983371 34.95008828 0.05859375 37.50976562 C-0.29057278 39.14085955 -0.64079513 40.7717279 -0.9921875 42.40234375 C-1.14855682 43.16481918 -1.30492615 43.92729462 -1.46603394 44.71287537 C-2.95416104 51.43851941 -2.95416104 51.43851941 -6 53.4375 C-9 53.875 -9 53.875 -12 53.4375 C-13.72485352 51.734375 -13.72485352 51.734375 -15 49.4375 C-14.97631836 47.01953125 -14.97631836 47.01953125 -14.40234375 44.25 C-14.19206543 43.18910156 -13.98178711 42.12820313 -13.76513672 41.03515625 C-13.5126416 39.84792969 -13.26014648 38.66070312 -13 37.4375 C-12.73616035 36.10331415 -12.47469282 34.7686575 -12.21533203 33.43359375 C-11.51119377 29.83425843 -10.77429736 26.24263799 -10.02319336 22.65283203 C-9.71328213 21.1625647 -9.40802221 19.6713233 -9.10717773 18.17919922 C-8.666128 15.99225826 -8.21160139 13.80851016 -7.75390625 11.625 C-7.48908447 10.33980469 -7.2242627 9.05460937 -6.95141602 7.73046875 C-5.65674742 3.24946028 -4.80135993 0.70019832 0 0 Z " fill="#0176BC" transform="translate(196,410.5625)"/>
<path d="M0 0 C2.9375 1.4375 2.9375 1.4375 3.99731445 3.49267578 C5.2080337 7.28485846 6.08466447 11.10170049 6.91796875 14.9921875 C7.09507889 15.81196075 7.27218903 16.63173401 7.45466614 17.47634888 C7.82601862 19.205544 8.19483895 20.93528462 8.5612793 22.66552734 C9.12217734 25.2992461 9.70044089 27.92877204 10.27929688 30.55859375 C10.63909921 32.24456189 10.9978577 33.93075321 11.35546875 35.6171875 C11.61628487 36.78627151 11.61628487 36.78627151 11.88237 37.97897339 C12.86226595 42.72037229 13.16210391 46.65086133 11.9375 51.4375 C8.9375 53.4375 8.9375 53.4375 5.875 53.25 C2.9375 52.4375 2.9375 52.4375 0.9375 49.4375 C0.34185791 47.47793579 0.34185791 47.47793579 -0.14746094 45.22900391 C-0.33395203 44.38447662 -0.52044312 43.53994934 -0.71258545 42.66983032 C-0.905401 41.76042694 -1.09821655 40.85102356 -1.296875 39.9140625 C-1.49855286 38.97573578 -1.70023071 38.03740906 -1.90802002 37.07064819 C-2.3316944 35.08593472 -2.75174954 33.10044572 -3.16845703 31.11425781 C-3.80925502 28.07787612 -4.47244785 25.04694575 -5.13671875 22.015625 C-5.54565822 20.08623104 -5.9532551 18.15655192 -6.359375 16.2265625 C-6.56028748 15.32120758 -6.76119995 14.41585266 -6.96820068 13.48306274 C-8.61751732 5.41272128 -8.61751732 5.41272128 -6.0625 1.4375 C-3.0625 -0.5625 -3.0625 -0.5625 0 0 Z " fill="#0176BC" transform="translate(189.0625,49.5625)"/>
<path d="M0 0 C3.76746637 3.52346102 4.29938949 8.52887002 5.33203125 13.3671875 C5.53229416 14.27953156 5.73255707 15.19187561 5.93888855 16.13186646 C6.35829053 18.05894756 6.77234035 19.98720023 7.18139648 21.91650391 C7.80963928 24.86158946 8.46529102 27.79966529 9.12304688 30.73828125 C9.52772626 32.61422072 9.93077556 34.49051273 10.33203125 36.3671875 C10.52980667 37.2423703 10.72758209 38.1175531 10.93135071 39.01925659 C11.95196979 43.96825482 12.24680048 47.26192608 10 52 C9 53 9 53 6.125 53.25 C3 53 3 53 1.37760925 51.73493958 C-0.17684372 49.77728578 -0.63727228 48.4223375 -1.16674805 45.9909668 C-1.43668831 44.78907967 -1.43668831 44.78907967 -1.71208191 43.56291199 C-1.89346207 42.70039322 -2.07484222 41.83787445 -2.26171875 40.94921875 C-2.55499809 39.61187431 -2.55499809 39.61187431 -2.85420227 38.24751282 C-3.2652991 36.36155418 -3.67094361 34.4744 -4.0715332 32.58618164 C-4.68354605 29.70610689 -5.31394134 26.83053296 -5.94726562 23.95507812 C-6.34484963 22.12002957 -6.74136896 20.28474995 -7.13671875 18.44921875 C-7.41789803 17.16454964 -7.41789803 17.16454964 -7.70475769 15.85392761 C-10.04263719 4.73772865 -10.04263719 4.73772865 -7.875 1.125 C-5.08893958 -0.54663625 -3.18011138 -0.46376624 0 0 Z " fill="#0176BD" transform="translate(319,411)"/>
</svg>
